<svg width="20" height="17" viewBox="0 0 20 17" fill="none" xmlns="http://www.w3.org/2000/svg">
<path d="M18.7891 14.4102L11.3008 1.61328C10.7031 0.628906 9.26172 0.628906 8.69922 1.61328L1.17578 14.4102C0.613281 15.3945 1.31641 16.625 2.47656 16.625H17.4883C18.6484 16.625 19.3516 15.3945 18.7891 14.4102ZM9.15625 5.65625C9.15625 5.19922 9.50781 4.8125 10 4.8125C10.457 4.8125 10.8438 5.19922 10.8438 5.65625V10.1562C10.8438 10.6484 10.457 11 10 11C9.57812 11 9.15625 10.6484 9.15625 10.1562V5.65625ZM10 14.375C9.36719 14.375 8.875 13.8828 8.875 13.2852C8.875 12.6875 9.36719 12.1953 10 12.1953C10.5977 12.1953 11.0898 12.6875 11.0898 13.2852C11.0898 13.8828 10.5977 14.375 10 14.375Z" fill="#FEA013"/>
</svg>
